<svg width="64" height="63" viewBox="0 0 64 63" fill="none" xmlns="http://www.w3.org/2000/svg">
<g clip-path="url(#clip0_1_302)">
<path d="M62.1378 29.2988L52.0205 24.2404L62.1378 19.1815C63.9474 18.2769 63.9494 15.6852 62.1378 14.7792L33.0986 0.259553C32.4055 -0.0865177 31.5903 -0.0865177 30.8972 0.259553L1.85797 14.7792C0.0483046 15.6842 0.0463825 18.2759 1.85797 19.1815L11.9753 24.2404L1.85797 29.2988C0.0483046 30.2038 0.0463825 32.795 1.85797 33.7011L11.9753 38.76L1.85797 43.8184C0.0483046 44.7234 0.0463825 47.3146 1.85797 48.2207L30.8972 62.7403C31.5888 63.0859 32.404 63.0873 33.0986 62.7403L62.1378 48.2207C63.9474 47.3156 63.9494 44.7244 62.1378 43.8184L52.0205 38.76L62.1378 33.7011C63.9474 32.7965 63.9494 30.2048 62.1378 29.2988ZM31.9979 5.21221L55.5341 16.9806L31.9979 28.7484L8.46168 16.9806L31.9979 5.21221ZM55.5341 46.0198L31.9979 57.7876L8.46168 46.0198L17.4783 41.5112L30.8972 48.2207C31.5893 48.5663 32.404 48.5677 33.0986 48.2207L46.5175 41.5112L55.5341 46.0198ZM31.9979 43.268L8.46168 31.5002L17.4783 26.9916L30.8972 33.7011C31.5893 34.0467 32.404 34.0481 33.0986 33.7011L46.5175 26.9916L55.5341 31.5002L31.9979 43.268Z" fill="#00A3A1"/>
</g>
<defs>
<clipPath id="clip0_1_302">
<rect width="63" height="63" fill="white" transform="translate(0.5)"/>
</clipPath>
</defs>
</svg>
