<svg width="65" height="63" viewBox="0 0 65 63" fill="none" xmlns="http://www.w3.org/2000/svg">
<g clip-path="url(#clip0_1_501)">
<path d="M10.7177 38.2959C11.139 38.5778 11.6154 38.7126 12.0867 38.7126C12.8819 38.7126 13.6627 38.3284 14.1382 37.6179C18.1225 31.6641 24.7829 28.1096 31.9546 28.1096C39.1052 28.1096 45.7546 31.6478 49.7417 37.5744C50.502 38.7043 52.0341 39.004 53.1639 38.2438C54.2939 37.4836 54.5936 35.9514 53.8334 34.8216C50.6478 30.0866 46.0804 26.5928 40.8612 24.7237C43.9912 22.1669 45.9931 18.2788 45.9931 13.9315C45.9931 6.24958 39.7436 0 32.0616 0C24.3797 0 18.1301 6.24958 18.1301 13.9315C18.1301 18.2476 20.103 22.1113 23.1943 24.6688C17.8934 26.5309 13.2574 30.067 10.0398 34.8752C9.2824 36.007 9.58593 37.5385 10.7177 38.2959ZM32.0616 4.93151C37.0242 4.93151 41.0616 8.96893 41.0616 13.9315C41.0616 18.8941 37.0242 22.9315 32.0616 22.9315C27.0991 22.9315 23.0616 18.8941 23.0616 13.9315C23.0616 8.96893 27.0991 4.93151 32.0616 4.93151ZM41.8948 43.6599L38.2189 46.3117C37.672 46.7062 37.443 47.4056 37.652 48.044L39.1323 52.3346C39.1948 52.5257 39.2189 52.7124 39.2108 52.8904C39.1585 54.0428 37.7141 54.8311 36.6549 54.0669L32.979 51.4144C32.7056 51.2172 32.3837 51.1185 32.0618 51.1185C31.7399 51.1185 31.418 51.2172 31.1445 51.4144L27.4687 54.0669C26.4094 54.8311 24.9582 54.0428 24.9123 52.8904C24.9053 52.7124 24.9299 52.5256 24.9925 52.3346L26.4714 48.044C26.6804 47.4056 26.4514 46.7062 25.9045 46.3117L22.2286 43.6599C21.0056 42.7776 21.6341 40.6849 23.1458 40.6849H27.6895C28.3656 40.6849 28.9648 40.4247 29.1736 39.7863L30.5776 35.4679C30.8113 34.7542 31.4365 34.3973 32.0618 34.3973C32.6871 34.3973 33.3123 34.7542 33.5459 35.4679L34.9499 39.7863C35.1589 40.4247 35.7579 40.6849 36.434 40.6849H40.9777C42.4893 40.6849 43.1178 42.7776 41.8948 43.6599ZM62.977 52.29L59.3011 54.9418C58.7542 55.3363 58.5252 56.0357 58.7342 56.6741L60.2145 60.9648C60.277 61.1559 60.3011 61.3425 60.293 61.5205C60.2406 62.6729 58.7963 63.4612 57.737 62.6971L54.0612 60.0445C53.7878 59.8473 53.4659 59.7487 53.144 59.7487C52.8221 59.7487 52.5002 59.8473 52.2267 60.0445L48.5509 62.6971C47.4916 63.4612 46.0404 62.6729 45.9945 61.5205C45.9875 61.3425 46.0121 61.1557 46.0746 60.9648L47.5536 56.6741C47.7626 56.0357 47.5336 55.3363 46.9867 54.9418L43.3108 52.29C42.0878 51.4078 42.7163 49.3151 44.228 49.3151H48.7717C49.4478 49.3151 50.047 49.0548 50.2558 48.4164L51.6598 44.098C51.8935 43.3843 52.5186 43.0274 53.144 43.0274C53.7693 43.0274 54.3945 43.3843 54.6281 44.098L56.0321 48.4164C56.2411 49.0548 56.8401 49.3151 57.5162 49.3151H62.0599C63.5715 49.3151 64.2 51.4078 62.977 52.29ZM20.8126 52.29L17.1367 54.9418C16.5898 55.3363 16.3608 56.0357 16.5698 56.6741L18.0501 60.9648C18.1126 61.1559 18.1367 61.3425 18.1287 61.5205C18.0763 62.6729 16.6319 63.4612 15.5727 62.6971L11.8967 60.0445C11.6233 59.8473 11.3014 59.7487 10.9795 59.7487C10.6575 59.7487 10.3356 59.8473 10.0622 60.0445L6.38637 62.6971C5.32708 63.4612 3.87586 62.6729 3.83 61.5205C3.82297 61.3425 3.84763 61.1557 3.91014 60.9648L5.3891 56.6741C5.59807 56.0357 5.36912 55.3363 4.82222 54.9418L1.14627 52.29C-0.0767398 51.4078 0.551781 49.3151 2.06353 49.3151H6.60718C7.28329 49.3151 7.88247 49.0548 8.09132 48.4164L9.49531 44.098C9.72894 43.3843 10.3541 43.0274 10.9795 43.0274C11.6048 43.0274 12.23 43.3843 12.4636 44.098L13.8676 48.4164C14.0766 49.0548 14.6756 49.3151 15.3517 49.3151H19.8954C21.4071 49.3151 22.0356 51.4078 20.8126 52.29Z" fill="#00A3A1"/>
</g>
<defs>
<clipPath id="clip0_1_501">
<rect width="64" height="63" fill="white" transform="translate(0.5)"/>
</clipPath>
</defs>
</svg>
