<svg width="64" height="63" viewBox="0 0 64 63" fill="none" xmlns="http://www.w3.org/2000/svg">
<g clip-path="url(#clip0_1_593)">
<path d="M33.7919 31.5C34.8126 31.5 35.6429 32.328 35.6429 33.3457C35.6429 35.2318 33.1137 35.9047 32.1777 34.2501C31.6755 33.3624 30.5473 33.0493 29.6578 33.5503C28.7683 34.0515 28.4544 35.1774 28.9567 36.065C29.6255 37.247 30.6968 38.1235 31.9426 38.564V38.8828C31.9426 39.9021 32.7707 40.7285 33.7921 40.7285C34.8135 40.7285 35.6416 39.9021 35.6416 38.8828V38.5655C37.7952 37.8037 39.3422 35.752 39.3422 33.3457C39.3422 30.2925 36.8524 27.8086 33.7921 27.8086C32.7714 27.8086 31.9411 26.9806 31.9411 25.9629C31.9411 24.9452 32.7714 24.1172 33.7921 24.1172C34.4592 24.1172 35.0779 24.478 35.4064 25.0586C35.9088 25.9462 37.0372 26.2597 37.9264 25.7581C38.816 25.257 39.1297 24.1311 38.6274 23.2434C37.9586 22.0614 36.8871 21.1851 35.6416 20.7446V20.4258C35.6416 19.4065 34.8135 18.5801 33.7921 18.5801C32.7707 18.5801 31.9426 19.4065 31.9426 20.4258V20.7431C29.789 21.5049 28.2419 23.5566 28.2419 25.9629C28.2418 29.0161 30.7316 31.5 33.7919 31.5Z" fill="#00A3A1"/>
<path d="M61.5271 36.5182C59.4302 34.6357 56.3769 34.4974 54.1445 36.0446V30.6677C54.1445 22.2133 49.5573 14.5246 42.275 10.4606C45.1456 6.38982 44.8692 1.96457 44.8869 1.84361C44.8858 0.825152 44.058 0 43.0373 0H24.5469C23.5262 0 22.6985 0.825029 22.6974 1.84361C22.726 2.03261 22.3721 6.23811 25.3224 10.4533C18.0323 14.5155 13.4399 22.2082 13.4399 30.6677V38.1022C10.6065 39.2817 8.29526 41.368 6.75349 44.4199H2.34964C1.3281 44.4199 0.5 45.2463 0.5 46.2656V61.1543C0.5 62.1736 1.3281 63 2.34952 63H43.0434C43.5329 63 44.0025 62.8064 44.3491 62.4617L61.7483 45.1578C64.1684 42.751 64.068 38.7993 61.5271 36.5182ZM41.0836 3.69141C40.7964 5.74309 39.9236 7.65462 38.5473 9.22852H29.0493C27.6897 7.66988 26.8035 5.73103 26.5066 3.69141H41.0836ZM17.1389 30.6677C17.1389 22.9896 21.6412 16.0649 28.6379 12.9199H38.9462C45.9429 16.065 50.4453 22.9896 50.4453 30.6677V39.6681L44.3361 45.9095C43.4202 44.0524 41.4756 42.7588 39.2653 42.7588H29.2416C26.5454 38.8274 21.9435 36.6795 17.1388 37.1669L17.1389 30.6677ZM59.137 42.5431L42.2792 59.3086H4.19916V48.1113H7.89216C9.4791 48.1113 9.75595 46.4602 10.1405 45.9154C13.3937 39.4768 22.3916 39.0253 26.3085 45.022C26.5291 45.2625 26.9275 46.4501 28.2435 46.4501H39.2654C40.3009 46.4501 41.1656 47.2539 41.1932 48.242C41.2221 49.2822 40.387 50.1415 39.3429 50.1415H26.391C25.3695 50.1415 24.5415 50.9679 24.5415 51.9872C24.5415 53.0065 25.3696 53.8329 26.391 53.8329H39.3429C40.6946 53.8329 41.9674 53.3564 42.9756 52.4821C43.3987 52.2402 42.7157 52.812 55.9143 39.3634C56.767 38.4921 58.1457 38.4477 59.0532 39.2623C60.016 40.1271 60.0616 41.6236 59.137 42.5431Z" fill="#00A3A1"/>
</g>
<defs>
<clipPath id="clip0_1_593">
<rect width="63" height="63" fill="white" transform="translate(0.5)"/>
</clipPath>
</defs>
</svg>
