<svg width="42" height="46" viewBox="0 0 42 46" fill="none" xmlns="http://www.w3.org/2000/svg">
<g clip-path="url(#clip0_1_897)">
<path d="M39.494 11.323H39.0379C38.7683 10.376 38.3916 9.46739 37.9128 8.60837L38.237 8.28407C38.608 7.91327 38.8121 7.41872 38.8121 6.89148C38.8121 6.36423 38.608 5.86977 38.2367 5.49853L36.0764 3.34078C35.7054 2.96751 35.2103 2.76203 34.6821 2.76203C34.1539 2.76203 33.6587 2.96751 33.2896 3.33892L32.9657 3.6628C32.106 3.18249 31.1971 2.8051 30.2507 2.53554V2.07949C30.2508 0.993182 29.3671 0.109375 28.2807 0.109375H25.2264C24.1401 0.109375 23.2563 0.993182 23.2563 2.07949V2.53554C22.3101 2.80501 21.4006 3.18249 20.5392 3.66315L20.2168 3.34078C19.8457 2.96751 19.3505 2.76203 18.8224 2.76212C18.2943 2.76212 17.7991 2.96768 17.43 3.33902L15.2701 5.49896C14.8991 5.86976 14.695 6.36432 14.695 6.89155C14.695 7.4188 14.8991 7.91327 15.27 8.28407L15.5942 8.60828C15.1133 9.46994 14.7365 10.3787 14.4683 11.323H14.0105C12.9242 11.323 12.0404 12.2068 12.0404 13.2931V16.3501C12.0404 17.4364 12.9242 18.3202 14.0105 18.3202H14.4683C14.7365 19.2644 15.1133 20.1731 15.5942 21.0349L15.27 21.3591C14.899 21.7299 14.6949 22.2244 14.6949 22.7517C14.6949 23.2788 14.899 23.7734 15.2699 24.1442L17.4281 26.3024C17.7991 26.6756 18.2942 26.8811 18.8223 26.8811C19.3504 26.8811 19.8458 26.6756 20.215 26.3042L20.5391 25.98C21.4014 26.4611 22.3109 26.8381 23.2562 27.1061V27.5638C23.2562 28.6501 24.14 29.5339 25.2263 29.5339H28.2806C29.3669 29.5339 30.2507 28.6501 30.2507 27.5638V27.1061C31.1963 26.838 32.1051 26.4612 32.9657 25.9804L33.2877 26.3024C33.6587 26.6756 34.1539 26.8811 34.682 26.8811C35.2102 26.8811 35.7054 26.6756 36.0742 26.3046L38.237 24.1442C38.6079 23.7733 38.812 23.2788 38.812 22.7516C38.812 22.2244 38.6079 21.7299 38.237 21.3591L37.9127 21.0348C38.3915 20.1758 38.7681 19.2672 39.0378 18.3202H39.494C40.5803 18.3202 41.4641 17.4364 41.4641 16.3501V13.2931C41.4642 12.2068 40.5804 11.323 39.494 11.323ZM28.493 27.5637C28.493 27.6788 28.3958 27.776 28.2807 27.776H25.2264C25.1113 27.776 25.0141 27.6788 25.0141 27.5637V20.8819C25.0141 20.5143 24.7854 20.1856 24.4408 20.0578C22.0791 19.1819 20.4924 16.9089 20.4924 14.4018C20.4924 12.4149 21.4817 10.5524 23.1384 9.41994C23.2128 9.36913 23.2785 9.32765 23.336 9.29364C23.3328 9.4079 23.3247 9.51652 23.3204 9.57321C23.3139 9.66242 23.3086 9.73283 23.3086 9.8027V13.9508C23.3086 15.8547 24.7963 17.4448 26.6953 17.5707C26.734 17.5733 26.7729 17.5733 26.8116 17.5707C28.7093 17.4449 30.1959 15.8548 30.1959 13.9508V9.8027C30.1959 9.73318 30.1907 9.66322 30.1842 9.57454C30.18 9.51759 30.1719 9.40834 30.1688 9.29356C30.2261 9.32748 30.2915 9.36888 30.3656 9.41959C32.0227 10.5523 33.0121 12.4149 33.0121 14.4017C33.0121 16.9086 31.4262 19.1817 29.0659 20.0578C28.7215 20.1857 28.4929 20.5143 28.4929 20.8818L28.493 27.5637ZM39.7064 16.3501C39.7064 16.4632 39.6072 16.5624 39.494 16.5624H38.3555C37.9449 16.5624 37.589 16.8467 37.4984 17.2472C37.22 18.4771 36.7379 19.64 36.0655 20.7037C35.846 21.051 35.8964 21.5042 36.187 21.7948L36.9942 22.602C37.0466 22.6544 37.0544 22.7182 37.0544 22.7516C37.0544 22.7849 37.0466 22.8488 36.9945 22.9008L34.8299 25.0631C34.7804 25.1128 34.7221 25.1233 34.6821 25.1233C34.6421 25.1233 34.5839 25.1128 34.5326 25.0611L33.7253 24.2539C33.4343 23.963 32.9807 23.9129 32.6334 24.1329C31.8832 24.6083 31.0846 24.9856 30.2508 25.2643V21.4664C32.9775 20.1975 34.77 17.4322 34.77 14.4017C34.77 11.8338 33.4943 9.42881 31.3578 7.96837C31.0305 7.7447 30.0351 7.06418 29.1646 7.56523C28.3098 8.0574 28.395 9.21112 28.4312 9.70382C28.4344 9.74662 28.4375 9.78257 28.4382 9.8027V13.9508C28.4382 14.9128 27.7029 15.7194 26.7535 15.8121C25.8029 15.7193 25.0664 14.9127 25.0664 13.9508L25.0663 9.80902C25.0671 9.78257 25.0703 9.74661 25.0735 9.70364C25.1101 9.2112 25.196 8.0581 24.3419 7.56566C23.4717 7.06374 22.4749 7.74452 22.147 7.96837C20.0102 9.42891 18.7346 11.8339 18.7346 14.4017C18.7346 17.4328 20.5281 20.1982 23.2563 21.4668V25.2644C22.4223 24.9856 21.6228 24.6082 20.8704 24.1326C20.7257 24.0412 20.5629 23.9966 20.401 23.9966C20.1739 23.9966 19.9488 24.0844 19.7792 24.2541L18.9703 25.0631C18.9208 25.1129 18.8626 25.1234 18.8225 25.1234C18.7824 25.1234 18.7243 25.1129 18.673 25.0613L16.513 22.9013C16.4606 22.8489 16.4527 22.785 16.4527 22.7517C16.4527 22.7183 16.4606 22.6545 16.513 22.602L17.3202 21.7948C17.6108 21.5042 17.6612 21.051 17.4417 20.7037C16.7658 19.6344 16.2838 18.472 16.0092 17.2487C15.9192 16.8475 15.5629 16.5623 15.1516 16.5623H14.0107C13.8976 16.5623 13.7983 16.4631 13.7983 16.35V13.293C13.7983 13.1779 13.8955 13.0807 14.0107 13.0807H15.1516C15.5629 13.0807 15.9191 12.7955 16.0092 12.3943C16.2838 11.1711 16.7657 10.0085 17.4417 8.93927C17.6612 8.59194 17.6108 8.13879 17.3202 7.84823L16.5129 7.04097C16.4606 6.98858 16.4527 6.92479 16.4527 6.89139C16.4527 6.85799 16.4606 6.79418 16.513 6.7417L18.6748 4.57982C18.7243 4.53009 18.7825 4.51963 18.8226 4.51963C18.8626 4.51963 18.9208 4.53009 18.9722 4.58168L19.7793 5.38893C20.0701 5.67957 20.5232 5.72994 20.8705 5.5104C21.9384 4.83524 23.1021 4.35228 24.329 4.07518C24.7297 3.98465 25.0142 3.62861 25.0142 3.21791V2.07949C25.0142 1.96436 25.1114 1.86714 25.2266 1.86714H28.2809C28.396 1.86714 28.4932 1.96436 28.4932 2.07949V3.21809C28.4932 3.62888 28.7777 3.98483 29.1784 4.07535C30.4064 4.35273 31.5688 4.83541 32.6336 5.51013C32.981 5.7302 33.4345 5.68011 33.7255 5.38919L34.5345 4.58009C34.584 4.53034 34.6422 4.51989 34.6822 4.51989C34.7223 4.51989 34.7805 4.53034 34.8322 4.58228L36.9944 6.74197C37.0468 6.79435 37.0546 6.85816 37.0546 6.89155C37.0546 6.92495 37.0468 6.98876 36.9943 7.04123L36.1872 7.84848C35.8966 8.13904 35.8461 8.59221 36.0657 8.93954C36.738 10.0033 37.2202 11.1661 37.4985 12.396C37.5891 12.7966 37.9451 13.0809 38.3557 13.0809H39.4942C39.6094 13.0809 39.7066 13.1781 39.7066 13.2932L39.7064 16.3501Z" fill="#00A3A1"/>
<path d="M31.8745 38.8085C31.5312 39.1517 31.5312 39.7082 31.8745 40.0515C32.0461 40.2231 32.271 40.309 32.4959 40.309C32.7208 40.309 32.9458 40.2231 33.1174 40.0515L33.1199 40.0491C33.4631 39.7059 33.4619 39.1506 33.1186 38.8073C32.7752 38.4641 32.2177 38.4655 31.8745 38.8085Z" fill="#00A3A1"/>
<path d="M35.9461 30.2946L28.9685 33.8779C28.377 33.2654 27.5482 32.8832 26.6315 32.8832H21.8507C21.583 32.8832 21.5176 32.8619 21.5132 32.8604C21.4744 32.8401 21.3519 32.7249 21.2536 32.6325L21.21 32.5915C17.3422 28.9506 14.0749 29.1813 10.3594 30.6476C9.75827 30.8849 9.74667 30.8854 9.14296 30.9112L8.06193 30.912C7.75397 29.9829 6.87754 29.3105 5.84652 29.3105H2.33133C1.04579 29.3105 0 30.3576 0 31.6444V40.87C0 42.1555 1.04579 43.2013 2.33133 43.2013H5.84652C6.87746 43.2013 7.75379 42.5298 8.06184 41.6018H10.0393C10.214 41.6018 10.214 41.6018 10.4171 41.6591C10.4909 41.6799 10.5807 41.7052 10.6967 41.7364L19.7927 44.1699C20.1936 44.2781 20.5614 44.3847 20.917 44.4878C22.0824 44.8254 23.062 45.1093 24.0831 45.1093C25.237 45.1093 26.4436 44.7467 28.0307 43.689C28.0383 43.6839 28.0459 43.6787 28.0535 43.6733L29.79 42.435C30.1852 42.1532 30.2772 41.6044 29.9953 41.2092C29.7135 40.8138 29.1645 40.722 28.7695 41.0039L27.0445 42.2339C24.7415 43.7657 23.7636 43.4825 21.4062 42.7994C21.0431 42.6942 20.6676 42.5854 20.2492 42.4724L11.1525 40.0388C11.046 40.0102 10.9624 39.9866 10.8939 39.9673C10.562 39.8738 10.4379 39.8442 10.0394 39.8442H8.1804V32.6704H9.13022C9.14287 32.6704 9.15535 32.6702 9.16801 32.6696L9.21811 32.6675C9.95487 32.6361 10.161 32.6159 11.0049 32.2828C14.2681 30.995 16.787 30.842 20.0063 33.8727L20.0498 33.9135C20.6 34.4306 20.9169 34.6412 21.8508 34.6412H26.6316C27.1926 34.6412 27.6819 34.9526 27.937 35.4115C27.9397 35.4166 27.9429 35.4214 27.9457 35.4265C28.0596 35.6372 28.1244 35.8782 28.1244 36.1341C28.1244 36.956 27.4548 37.6245 26.6316 37.6245H18.8837C18.3983 37.6245 18.0048 38.018 18.0048 38.5034C18.0048 38.9888 18.3983 39.3823 18.8837 39.3823H26.6316C28.424 39.3823 29.8822 37.9252 29.8822 36.1341C29.8822 35.8907 29.8544 35.6537 29.8035 35.4255L36.7491 31.8585C37.4065 31.521 38.3054 31.5572 38.7517 32.2814C39.1465 32.9198 38.9294 33.7682 38.2469 34.2548L35.2001 36.4248C34.8047 36.7064 34.7124 37.2551 34.994 37.6505C35.1654 37.8913 35.436 38.0197 35.7106 38.0197C35.887 38.0197 36.0651 37.9667 36.2197 37.8566L39.2669 35.6864C40.714 34.6547 41.1352 32.7934 40.2473 31.3581C39.3743 29.9411 37.5253 29.4839 35.9461 30.2946ZM6.42255 40.87C6.42255 41.1809 6.15879 41.4436 5.84652 41.4436H2.33133C2.02038 41.4436 1.75777 41.1809 1.75777 40.87V31.6445C1.75777 31.3269 2.01511 31.0684 2.33133 31.0684H5.84652C6.15879 31.0684 6.42255 31.3322 6.42255 31.6445V40.87Z" fill="#00A3A1"/>
</g>
<defs>
<clipPath id="clip0_1_897">
<rect width="42" height="45" fill="white" transform="translate(0 0.109375)"/>
</clipPath>
</defs>
</svg>
