<svg width="40" height="41" viewBox="0 0 40 41" fill="none" xmlns="http://www.w3.org/2000/svg">
<g clip-path="url(#clip0_1_880)">
<path d="M28.822 3.75191C25.5198 1.06798 21.2036 0.034981 16.9793 0.9178C11.7003 2.02104 7.39342 6.34738 6.26217 11.6835C5.30834 16.1829 6.48373 20.7001 9.48701 24.0769C10.9766 25.7518 11.7969 27.8469 11.7969 29.9825V32.3266C11.7969 33.8546 12.7766 35.1575 14.1406 35.6413V37.0931C14.1406 39.032 15.7177 40.6094 17.6562 40.6094H22.3438C24.2823 40.6094 25.8594 39.032 25.8594 37.0931V35.6413C27.2234 35.1575 28.2031 33.8546 28.2031 32.3266V29.9825C28.2031 27.8743 29.0478 25.7494 30.5814 23.9994C32.8262 21.4379 34.0625 18.1514 34.0625 14.7453C34.0625 10.4658 32.1524 6.45881 28.822 3.75191ZM23.5156 37.0931C23.5156 37.7394 22.9899 38.2652 22.3438 38.2652H17.6562C17.0101 38.2652 16.4844 37.7394 16.4844 37.0931V35.8429H23.5156V37.0931ZM25.8594 32.3266C25.8594 32.9729 25.3337 33.4987 24.6875 33.4987H15.3125C14.6663 33.4987 14.1406 32.9729 14.1406 32.3266V31.1545H25.8594V32.3266ZM20 20.5024C20.7913 20.5024 21.5825 20.3758 22.3438 20.1246V28.8104H17.6562V20.1246C18.4175 20.3758 19.2086 20.5024 20 20.5024ZM18.041 17.7686L20 13.8499L21.959 17.7685C20.7032 18.2853 19.2968 18.2853 18.041 17.7686ZM28.8189 22.4543C27.1895 24.3136 26.185 26.5346 25.9262 28.8104H24.6875V18.2698V18.2651C24.6875 18.1052 24.6529 17.929 24.5749 17.7635C24.5709 17.7549 24.568 17.7459 24.5637 17.7375L21.0481 10.7049C20.8496 10.3078 20.4438 10.057 19.9999 10.057C19.556 10.057 19.1503 10.3078 18.9517 10.7049L15.4361 17.7375C15.3585 17.893 15.3124 18.0821 15.3124 18.2643C15.3124 18.2664 15.3124 18.2684 15.3124 18.2705V28.8104H14.0767C13.8255 26.5188 12.8397 24.3197 11.2382 22.519C8.73529 19.7047 7.75725 15.9326 8.55498 12.1697C9.49654 7.72826 13.0747 4.12862 17.4587 3.21244C20.989 2.47465 24.592 3.33441 27.3439 5.57116C30.1242 7.83095 31.7188 11.1748 31.7188 14.7453C31.7188 17.5827 30.6889 20.3204 28.8189 22.4543Z" fill="#00A3A1"/>
<path d="M3.51562 14.7454H1.17188C0.524687 14.7454 0 15.2702 0 15.9175C0 16.5648 0.524687 17.0896 1.17188 17.0896H3.51562C4.16281 17.0896 4.6875 16.5648 4.6875 15.9175C4.6875 15.2702 4.16281 14.7454 3.51562 14.7454Z" fill="#00A3A1"/>
<path d="M4.00104 8.88491L2.34377 7.22734C1.88611 6.7696 1.14416 6.7696 0.686504 7.22734C0.228848 7.68508 0.228848 8.42717 0.686504 8.88491L2.34377 10.5425C2.8015 11.0003 3.54346 11.0002 4.00104 10.5425C4.45869 10.0847 4.45869 9.34265 4.00104 8.88491Z" fill="#00A3A1"/>
<path d="M4.00098 21.2922C3.54332 20.8345 2.80137 20.8345 2.34371 21.2922L0.686445 22.9499C0.228867 23.4076 0.228867 24.1497 0.686445 24.6075C1.14402 25.0651 1.88598 25.0652 2.34371 24.6075L4.00098 22.9499C4.45855 22.4922 4.45855 21.75 4.00098 21.2922Z" fill="#00A3A1"/>
<path d="M38.8281 14.7454H36.4844C35.8372 14.7454 35.3125 15.2702 35.3125 15.9175C35.3125 16.5648 35.8372 17.0896 36.4844 17.0896H38.8281C39.4753 17.0896 40 16.5648 40 15.9175C40 15.2702 39.4753 14.7454 38.8281 14.7454Z" fill="#00A3A1"/>
<path d="M39.3135 7.22734C38.8559 6.7696 38.1139 6.7696 37.6562 7.22734L35.999 8.88491C35.5413 9.34265 35.5413 10.0847 35.999 10.5425C36.4566 11.0002 37.1986 11.0002 37.6562 10.5425L39.3135 8.88491C39.7712 8.42717 39.7712 7.68508 39.3135 7.22734Z" fill="#00A3A1"/>
<path d="M39.3135 22.9499L37.6562 21.2922C37.1987 20.8345 36.4567 20.8345 35.999 21.2922C35.5412 21.75 35.5413 22.4922 35.999 22.9499L37.6562 24.6075C38.1138 25.0652 38.8559 25.0652 39.3135 24.6075C39.7712 24.1497 39.7712 23.4076 39.3135 22.9499Z" fill="#00A3A1"/>
</g>
<defs>
<clipPath id="clip0_1_880">
<rect width="40" height="40" fill="white" transform="translate(0 0.609375)"/>
</clipPath>
</defs>
</svg>
