<svg width="34" height="41" viewBox="0 0 34 41" fill="none" xmlns="http://www.w3.org/2000/svg">
<g clip-path="url(#clip0_1_868)">
<path d="M15.0577 19.7405L15.4002 19.3979V22.3834C15.4002 23.0293 15.9239 23.553 16.5698 23.553C17.2157 23.553 17.7394 23.0293 17.7394 22.3834V19.3979L18.0819 19.7405C18.3104 19.9689 18.6097 20.0831 18.909 20.0831C19.2083 20.0831 19.5077 19.9689 19.736 19.7405C20.1927 19.2838 20.1928 18.5433 19.7361 18.0865L17.3969 15.7472C17.1775 15.5278 16.88 15.4045 16.5698 15.4045C16.2596 15.4045 15.9621 15.5277 15.7428 15.7472L13.4036 18.0865C12.9469 18.5433 12.947 19.2838 13.4036 19.7405C13.8604 20.1973 14.6008 20.1972 15.0577 19.7405Z" fill="#00A3A1"/>
<path d="M31.9671 22.0355L27.678 17.7465L27.6777 7.08713C27.6777 6.44122 27.154 5.91762 26.5081 5.91762H10.8453L10.3637 1.64797C10.297 1.05639 9.79677 0.609375 9.20152 0.609375H1.1696C0.523667 0.609375 0 1.13304 0 1.77898V16.3597C0 17.3182 0.491932 18.5057 1.16967 19.1834L5.46185 23.4754V31.8704C5.46185 33.8052 7.03582 35.3792 8.97064 35.3792H22.3003L22.773 39.5709C22.8397 40.1624 23.34 40.6094 23.9352 40.6094H31.9672C32.6132 40.6094 33.1368 40.0857 33.1368 39.4398V24.8591C33.1367 23.9006 32.6448 22.7131 31.9671 22.0355ZM6.18061 10.5952C5.74349 10.7763 5.45858 11.2027 5.45858 11.6758L5.45866 20.1642L2.82364 17.5292C2.58816 17.2938 2.33911 16.6927 2.33911 16.3597V2.94857H8.15637L8.58514 6.75037C8.60378 6.9163 8.65789 7.07638 8.74358 7.2197C8.75598 7.24044 9.99256 9.30804 10.8535 10.7582C11.0321 11.059 11.5675 12.088 10.9579 12.6976C10.737 12.9185 10.4432 13.0402 10.1309 13.0402C9.81852 13.0402 9.5248 12.9185 9.3039 12.6976L7.45516 10.8489C7.12065 10.5143 6.61757 10.4143 6.18061 10.5952ZM10.131 15.3793C11.0682 15.3793 11.9493 15.0143 12.6121 14.3515C13.81 13.1535 13.9069 11.319 12.865 9.56396C12.6234 9.15709 12.3525 8.70189 12.0871 8.25681H25.3384L25.3388 26.7276C24.6956 26.1535 23.8747 25.8396 23.0056 25.8396C22.0685 25.8396 21.1873 26.2046 20.5244 26.8674C20.0968 27.2951 19.8102 27.8043 19.665 28.3617H8.97056C8.5605 28.3617 8.16705 28.4331 7.80097 28.5629L7.79777 14.4914C8.44097 15.0654 9.26195 15.3793 10.131 15.3793ZM8.97056 33.04C8.32565 33.04 7.80097 32.5153 7.80097 31.8704C7.80097 31.2255 8.32565 30.7008 8.97056 30.7008H19.819C19.9331 31.0186 20.0836 31.338 20.2717 31.6549C20.5273 32.0855 20.816 32.5704 21.096 33.04H8.97056ZM30.7976 38.2703H24.9803L24.5515 34.4685C24.5328 34.3026 24.4788 34.1426 24.3931 33.9992C24.3807 33.9785 23.1441 31.911 22.2831 30.4607C22.1045 30.1599 21.5691 29.131 22.1787 28.5214C22.3996 28.3005 22.6933 28.1788 23.0057 28.1788C23.3181 28.1788 23.6119 28.3004 23.8328 28.5213L25.6815 30.3701C26.0162 30.7046 26.5193 30.8045 26.9561 30.6236C27.3932 30.4425 27.6782 30.0161 27.6782 29.543L27.6781 21.0546L30.3131 23.6896C30.5486 23.925 30.7976 24.5261 30.7976 24.8591V38.2703Z" fill="#00A3A1"/>
</g>
<defs>
<clipPath id="clip0_1_868">
<rect width="34" height="40" fill="white" transform="translate(0 0.609375)"/>
</clipPath>
</defs>
</svg>
