<svg width="48" height="49" viewBox="0 0 48 49" fill="none" xmlns="http://www.w3.org/2000/svg">
<g clip-path="url(#clip0_1_936)">
<path d="M46.5938 39.6654H42.375V23.5403C42.3816 23.5454 42.3889 23.5502 42.3955 23.5549C42.6442 23.7348 42.932 23.8212 43.2177 23.8212C43.6454 23.8212 44.0676 23.6267 44.3434 23.259L47.7188 18.7597C47.9451 18.4583 48.0407 18.0789 47.9847 17.7065C47.9286 17.3337 47.7254 16.9993 47.4203 16.7781C47.1955 16.6148 24.9245 0.442462 24.83 0.37398C24.336 0.0128931 23.6655 0.0128931 23.1718 0.372881C23.1088 0.418658 18.8593 3.50475 14.0626 6.98781V4.41552C14.0626 3.63878 13.4327 3.00926 12.6564 3.00926H7.03131C6.25457 3.00926 5.62505 3.63878 5.62505 4.41552V13.1145C2.73965 15.21 0.648199 16.7287 0.580083 16.7781C0.275027 16.9997 0.071778 17.3341 0.0157472 17.7065C-0.0402836 18.0793 0.0552984 18.4587 0.281619 18.7601L3.65701 23.259C4.11698 23.8724 4.98344 24.0039 5.60491 23.5553C5.61186 23.5502 5.61809 23.5454 5.62505 23.5407V39.6658H1.40626C0.629522 39.6658 0 40.2953 0 41.0721C0 41.8484 0.629522 42.478 1.40626 42.478H13.1932L11.3984 46.068C11.1805 46.5041 11.204 47.0216 11.4599 47.4361C11.7163 47.8507 12.1689 48.103 12.6564 48.103H35.2499C35.7374 48.103 36.19 47.8507 36.4464 47.4361C36.7027 47.0216 36.7258 46.5041 36.5079 46.068L34.7131 42.478H46.5938C47.3705 42.478 48 41.8484 48 41.0721C48 40.2953 47.3705 39.6654 46.5938 39.6654ZM8.43757 5.82178H11.2501V9.03018C10.2976 9.7216 9.35091 10.409 8.43757 11.0725V5.82178ZM5.07792 20.4667L3.38858 18.2148C17.5702 7.91653 22.3713 4.43017 24.0002 3.2473C27.135 5.52369 38.3946 13.6998 44.6118 18.2148L42.9225 20.4667C42.7972 20.3766 25.1351 7.62575 24.8275 7.40346C24.3346 7.04494 23.6677 7.04494 23.1748 7.402C23.0909 7.46242 5.16215 20.4059 5.07792 20.4667ZM8.43757 21.5104C18.7644 14.055 22.5848 11.2967 24.0002 10.2749C26.5161 12.0913 34.2245 17.6567 39.5625 21.51V39.6658H33.8437V26.9157C33.8437 26.1389 33.2141 25.5094 32.4374 25.5094H15.4689C14.6921 25.5094 14.0626 26.1389 14.0626 26.9157V39.6658H8.43757V21.5104ZM25.4065 39.6654V28.3216H31.0315V39.6654H25.4065ZM16.8751 39.6654V28.3216H22.5939V39.6654H16.8751ZM14.9316 45.2905L16.3379 42.478H31.5684L32.9746 45.2905H14.9316Z" fill="white"/>
<path d="M24.0003 22.6969C26.3265 22.6969 28.2191 20.8043 28.2191 18.4781C28.2191 16.1519 26.3265 14.2593 24.0003 14.2593C21.6741 14.2593 19.7815 16.1519 19.7815 18.4781C19.7815 20.8043 21.6741 22.6969 24.0003 22.6969ZM24.0003 17.0719C24.7756 17.0719 25.4066 17.7025 25.4066 18.4781C25.4066 19.2534 24.7756 19.8844 24.0003 19.8844C23.2247 19.8844 22.594 19.2534 22.594 18.4781C22.594 17.7025 23.2247 17.0719 24.0003 17.0719Z" fill="white"/>
</g>
<defs>
<clipPath id="clip0_1_936">
<rect width="48" height="48" fill="white" transform="translate(0 0.103027)"/>
</clipPath>
</defs>
</svg>
