<svg width="56" height="56" viewBox="0 0 56 56" fill="none" xmlns="http://www.w3.org/2000/svg">
<g clip-path="url(#clip0_1_951)">
<path d="M40.0065 48.9364V31.6098C40.0065 29.5092 38.6594 27.7181 36.7839 27.053V22.1609C36.7839 18.0656 33.4523 14.7339 29.3571 14.7339H11.1496C7.05435 14.7339 3.72266 18.0656 3.72266 22.1609V27.053C1.84729 27.7181 0.5 29.5092 0.5 31.6098V48.9364C0.5 49.8263 1.22145 50.5477 2.11133 50.5477H3.72266V53.9917C3.72266 54.8816 4.4441 55.603 5.33398 55.603C6.22387 55.603 6.94531 54.8816 6.94531 53.9917V50.5477H33.5614V53.9917C33.5614 54.8816 34.2829 55.603 35.1728 55.603C36.0627 55.603 36.7841 54.8816 36.7841 53.9917V50.5477H38.3954C39.2852 50.5477 40.0065 49.8263 40.0065 48.9364ZM11.1496 17.9566H29.3572C31.6754 17.9566 33.5613 19.8426 33.5613 22.1609V27.053C31.6859 27.7181 30.3387 29.5092 30.3387 31.6098V33.3664C23.8174 30.2694 17.1764 30.038 10.1679 33.3664V31.6098C10.1679 29.5092 8.82068 27.7181 6.94521 27.053V22.1609C6.94521 19.8426 8.83132 17.9566 11.1496 17.9566ZM30.3387 40.8798H10.1679V36.9831C17.0271 33.2153 23.4796 33.2153 30.3387 36.9831V40.8798ZM10.1679 44.1024H30.3387V47.3251H10.1679V44.1024ZM3.72266 31.6098C3.72266 30.7213 4.4455 29.9985 5.33398 29.9985C6.22247 29.9985 6.94531 30.7213 6.94531 31.6098V47.3251H3.72266V31.6098ZM36.784 47.3251H33.5613V31.6098C33.5613 30.7213 34.2841 29.9985 35.1727 29.9985C36.0613 29.9985 36.784 30.7213 36.784 31.6098V47.3251Z" fill="white"/>
<path d="M55.4588 11.2403L53.3103 1.85482C53.1426 1.1223 52.4911 0.603027 51.7397 0.603027H42.3542C41.6028 0.603027 40.9513 1.1223 40.7835 1.85482L38.6351 11.2403C38.4045 12.2485 39.1713 13.2112 40.2058 13.2112H45.4356V52.3803H41.0989C40.209 52.3803 39.4876 53.1018 39.4876 53.9917C39.4876 54.8816 40.209 55.603 41.0989 55.603H52.995C53.8849 55.603 54.6064 54.8816 54.6064 53.9917C54.6064 53.1018 53.8849 52.3803 52.995 52.3803H48.6582V13.2112H53.888C54.9223 13.2112 55.6895 12.2487 55.4588 11.2403ZM42.2276 9.98859L43.6383 3.82569H50.4555L51.8662 9.98859H42.2276Z" fill="white"/>
</g>
<defs>
<clipPath id="clip0_1_951">
<rect width="55" height="55" fill="white" transform="translate(0.5 0.603027)"/>
</clipPath>
</defs>
</svg>
