<svg width="56" height="56" viewBox="0 0 56 56" fill="none" xmlns="http://www.w3.org/2000/svg">
<g clip-path="url(#clip0_1_966)">
<path d="M55.4716 2.15188C55.4262 1.33192 54.7712 0.676882 53.9512 0.631982C53.9298 0.630723 53.4145 0.603027 52.5253 0.603027C50.0718 0.603027 45.1231 0.808645 39.5491 2.18671C32.5044 3.92817 26.8025 6.94111 22.6016 11.142C20.7732 12.9703 19.1723 15.0781 17.8039 17.4528L15.9689 15.6182C15.4872 15.1364 14.7549 15.0097 14.1397 15.3014L1.4216 21.3251C0.840835 21.6004 0.479114 22.1946 0.500935 22.8371L1.17066 42.2487C1.19248 42.8899 1.59323 43.4568 2.18994 43.6922C2.38171 43.7682 2.58188 43.8047 2.78036 43.8047C3.19999 43.8047 3.61249 43.6406 3.92008 43.3326L14.8292 32.4235L18.1153 35.7092L7.20577 46.6183C6.57675 47.2478 6.57675 48.2679 7.20577 48.8973C7.5205 49.212 7.93299 49.3694 8.34507 49.3694C8.75756 49.3694 9.17006 49.212 9.48478 48.8973L20.3939 37.9878L23.6796 41.2735L12.7709 52.183C12.3169 52.6366 12.1759 53.3164 12.4109 53.9132C12.6463 54.5103 13.2132 54.9106 13.8544 54.9329L33.266 55.6022C33.2849 55.603 33.3034 55.603 33.3218 55.603C33.9429 55.603 34.5106 55.2455 34.778 54.6815L40.8026 41.9638C41.0942 41.3482 40.9671 40.6159 40.4858 40.1342L38.6503 38.2996C41.0254 36.9307 43.1332 35.3299 44.9611 33.502C47.6337 30.8293 49.8494 27.5054 51.5459 23.6222C52.8883 20.5505 53.9114 17.1221 54.5861 13.4328C55.7313 7.17275 55.4825 2.35414 55.4716 2.15188ZM3.75852 23.7842L14.4931 18.6995L16.2572 20.4641C15.0361 23.1447 14.0676 26.1077 13.3559 29.3392L4.26333 38.4318L3.75852 23.7842ZM37.404 41.6105L32.3189 52.345L17.6713 51.8398L26.7634 42.7472C29.9954 42.0355 32.9584 41.067 35.639 39.8459L37.404 41.6105ZM51.4016 12.9309C50.4138 18.2862 48.0987 25.8068 42.6825 31.2229C40.6469 33.2586 38.2076 34.9853 35.386 36.3949C35.2966 36.4293 35.2106 36.4729 35.1271 36.5241C32.5518 37.7826 29.6627 38.7805 26.4743 39.5106L22.6729 35.7092L28.2271 30.155C28.8566 29.5255 28.8566 28.5054 28.2271 27.876C27.5981 27.2465 26.5775 27.247 25.9485 27.876L20.3939 33.4302L16.5925 29.6288C17.3222 26.4408 18.3205 23.5521 19.579 20.9769C19.6302 20.8933 19.6738 20.8065 19.7086 20.7167C21.1182 17.8955 22.8445 15.4562 24.8801 13.4206C33.616 4.68477 47.7474 3.85432 52.2757 3.8262C52.2635 5.66544 52.1225 9.02625 51.4016 12.9309Z" fill="white"/>
<path d="M38.4669 23.9809C40.1614 23.9809 41.7547 23.3208 42.9536 22.1223C45.4269 19.6486 45.4269 15.6235 42.9532 13.1502C41.7547 11.9518 40.1618 11.2917 38.4669 11.2917C36.772 11.2917 35.1791 11.9518 33.9807 13.1502C32.7822 14.3483 32.1221 15.9416 32.1221 17.6365C32.1221 19.3314 32.7822 20.9243 33.9807 22.1228C35.1791 23.3208 36.772 23.9809 38.4669 23.9809ZM36.2597 15.4288C36.8492 14.8393 37.6331 14.5145 38.4669 14.5145C39.3007 14.5145 40.0846 14.8393 40.6746 15.4288C41.8915 16.6458 41.8915 18.6264 40.6746 19.8438C40.085 20.4333 39.3007 20.7581 38.4669 20.7581C37.6331 20.7581 36.8492 20.4333 36.2592 19.8438C35.6697 19.2542 35.3449 18.4703 35.3449 17.6365C35.3449 16.8023 35.6697 16.0184 36.2597 15.4288Z" fill="white"/>
</g>
<defs>
<clipPath id="clip0_1_966">
<rect width="55" height="55" fill="white" transform="translate(0.5 0.603027)"/>
</clipPath>
</defs>
</svg>
